<?xml version="1.0" encoding="UTF-8" standalone="no"?>
<svg
   viewBox="0 0 967.9797 837.17155"
   version="1.1"
   id="svg71"
   sodipodi:docname="logo.svg"
   width="967.97968"
   height="837.17157"
   inkscape:version="1.2.2 (b0a84865, 2022-12-01)"
   xmlns:inkscape="http://www.inkscape.org/namespaces/inkscape"
   xmlns:sodipodi="http://sodipodi.sourceforge.net/DTD/sodipodi-0.dtd"
   xmlns="http://www.w3.org/2000/svg"
   xmlns:svg="http://www.w3.org/2000/svg">
  <sodipodi:namedview
     id="namedview73"
     pagecolor="#ffffff"
     bordercolor="#000000"
     borderopacity="0.25"
     inkscape:showpageshadow="2"
     inkscape:pageopacity="0.0"
     inkscape:pagecheckerboard="0"
     inkscape:deskcolor="#d1d1d1"
     showgrid="false"
     inkscape:zoom="1.1084633"
     inkscape:cx="420.40183"
     inkscape:cy="409.12496"
     inkscape:window-width="1390"
     inkscape:window-height="1205"
     inkscape:window-x="676"
     inkscape:window-y="83"
     inkscape:window-maximized="0"
     inkscape:current-layer="svg71" />
  <defs
     id="defs17">
    <linearGradient
       id="e"
       x1="406.83777"
       x2="243.47385"
       y2="46.489185"
       gradientTransform="scale(1.0061288,0.99390857)"
       y1="-99.82608"
       gradientUnits="userSpaceOnUse">
      <stop
         stop-color="#d45500"
         offset="0"
         id="stop2" />
      <stop
         stop-color="#fff"
         offset="1"
         id="stop4" />
    </linearGradient>
    <linearGradient
       id="f"
       x1="167.15063"
       x2="167.15063"
       y1="225.77669"
       y2="383.09586"
       gradientTransform="scale(1.0092094,0.9908746)"
       gradientUnits="userSpaceOnUse">
      <stop
         stop-color="#d38d5f"
         offset="0"
         id="stop7" />
      <stop
         stop-color="#d38d5f"
         stop-opacity="0"
         offset="1"
         id="stop9" />
    </linearGradient>
    <linearGradient
       id="d"
       x1="-66.836662"
       y2="46.489185"
       gradientTransform="scale(1.0061288,0.99390857)"
       y1="-99.82608"
       x2="52.278599"
       gradientUnits="userSpaceOnUse">
      <stop
         stop-color="#d45500"
         offset="0"
         id="stop12" />
      <stop
         stop-color="#fff"
         offset="1"
         id="stop14" />
    </linearGradient>
  </defs>
  <g
     id="g205"
     transform="matrix(1.554463,0,0,1.554463,217.62482,216.07036)">
    <path
       d="m 408.15,164.55 c 0,129.79 -107.21,235.01 -239.46,235.01 -132.25,0 -239.46,-105.22 -239.46,-235.01 0,-129.79 107.21,-235.01 239.46,-235.01 132.25,0 239.46,105.22 239.46,235.01 z"
       fill="#6b350f"
       id="path19" />
    <g
       fill-rule="evenodd"
       stroke-width="0.521"
       id="g37">
      <g
         fill="#6b350f"
         id="g25">
        <path
           d="m 482.71,-23.4 c 0,63.844 -54.374,115.6 -121.45,115.6 -67.074,0 -121.45,-51.756 -121.45,-115.6 0,-63.844 54.374,-115.6 121.45,-115.6 67.074,0 121.45,51.756 121.45,115.6 z"
           id="path21" />
        <path
           d="M 102.9,-23.4 C 102.9,40.444 48.526,92.2 -18.55,92.2 -85.624,92.2 -140,40.444 -140,-23.4 c 0,-63.844 54.374,-115.6 121.45,-115.6 67.074,0 121.45,51.756 121.45,115.6 z"
           id="path23" />
      </g>
      <g
         fill="#d45500"
         id="g31">
        <path
           d="m 90.764,-23.306 c 0,56.677 -48.27,102.62 -107.81,102.62 -59.544,0 -107.81,-45.946 -107.81,-102.62 0,-56.677 48.27,-102.62 107.81,-102.62 59.544,0 107.81,45.946 107.81,102.62 z"
           id="path27" />
        <path
           d="m 469.56,-23.306 c 0,56.677 -48.27,102.62 -107.81,102.62 -59.544,0 -107.81,-45.946 -107.81,-102.62 0,-56.677 48.27,-102.62 107.81,-102.62 59.544,0 107.81,45.946 107.81,102.62 z"
           id="path29" />
      </g>
      <path
         d="m 52.599,-26.506 c 0,40.158 -32.955,72.712 -73.606,72.712 -40.651,0 -73.606,-32.554 -73.606,-72.712 0,-40.158 32.954,-72.712 73.606,-72.712 40.651,0 73.606,32.554 73.606,72.712 z"
         fill="url(#d)"
         id="path33"
         style="fill:url(#d)" />
      <path
         d="m 434.21,-26.506 c 0,40.158 -32.955,72.712 -73.606,72.712 -40.651,0 -73.606,-32.554 -73.606,-72.712 0,-40.158 32.954,-72.712 73.606,-72.712 40.651,0 73.606,32.554 73.606,72.712 z"
         fill="url(#e)"
         id="path35"
         style="fill:url(#e)" />
    </g>
    <path
       d="m 395.09,164.55 c 0,122.71 -101.36,222.19 -226.4,222.19 -125.04,0 -226.4,-99.478 -226.4,-222.19 0,-122.712 101.36,-222.19 226.4,-222.19 125.04,0 226.4,99.478 226.4,222.19 z"
       fill="#d45500"
       id="path39" />
    <g
       transform="matrix(13.824,0,0,13.567,1131.1,-820.54)"
       id="g61">
      <g
         transform="matrix(0.41061,0,0,0.41061,37.955,10.947)"
         id="g49">
        <path
           d="m -239.98,137.16 c 0,5.6084 -4.5465,10.155 -10.155,10.155 -5.6084,0 -10.155,-4.5465 -10.155,-10.155 0,-5.6084 4.5465,-10.155 10.155,-10.155 5.6084,0 10.155,4.5465 10.155,10.155 z"
           fill="#ffffff"
           id="path41" />
        <g
           stroke="#000000"
           stroke-width="0.1"
           id="g47">
          <path
             d="m -243.47,136.91 c 0,4.275 -3.0425,7.7405 -6.7955,7.7405 -3.7531,0 -6.7955,-3.4656 -6.7955,-7.7405 0,-4.275 3.0424,-7.7405 6.7955,-7.7405 3.753,0 6.7955,3.4656 6.7955,7.7405 z"
             id="path43" />
          <path
             d="m -246.8,132.99 c 0,1.4053 -1.1392,2.5445 -2.5445,2.5445 -1.4053,0 -2.5445,-1.1392 -2.5445,-2.5445 0,-1.4053 1.1392,-2.5445 2.5445,-2.5445 1.4053,0 2.5445,1.1392 2.5445,2.5445 z"
             fill="#ffffff"
             id="path45" />
        </g>
      </g>
      <g
         transform="matrix(0.41061,0,0,0.41061,28.22,10.947)"
         id="g59">
        <path
           d="m -239.98,137.16 c 0,5.6084 -4.5465,10.155 -10.155,10.155 -5.6084,0 -10.155,-4.5465 -10.155,-10.155 0,-5.6084 4.5465,-10.155 10.155,-10.155 5.6084,0 10.155,4.5465 10.155,10.155 z"
           fill="#ffffff"
           id="path51" />
        <g
           stroke="#000000"
           stroke-width="0.1"
           id="g57">
          <path
             d="m -243.47,136.91 c 0,4.275 -3.0425,7.7405 -6.7955,7.7405 -3.7531,0 -6.7955,-3.4656 -6.7955,-7.7405 0,-4.275 3.0424,-7.7405 6.7955,-7.7405 3.753,0 6.7955,3.4656 6.7955,7.7405 z"
             id="path53" />
          <path
             d="m -246.8,132.99 c 0,1.4053 -1.1392,2.5445 -2.5445,2.5445 -1.4053,0 -2.5445,-1.1392 -2.5445,-2.5445 0,-1.4053 1.1392,-2.5445 2.5445,-2.5445 1.4053,0 2.5445,1.1392 2.5445,2.5445 z"
             fill="#ffffff"
             id="path55" />
        </g>
      </g>
    </g>
    <g
       stroke="#6b350f"
       id="g67">
      <path
         d="m 284.6,257.38 c 0,62.791 -51.926,113.75 -115.91,113.75 -63.98,0 -115.91,-50.961 -115.91,-113.75 0,-62.791 51.926,-113.75 115.91,-113.75 63.98,0 115.91,50.961 115.91,113.75 z"
         fill="url(#f)"
         fill-rule="evenodd"
         stroke-linecap="square"
         stroke-width="5.967"
         id="path63"
         style="fill:url(#f)" />
      <path
         d="m 80.48,272.65 c 22.054,36.827 73.135,35.89 86.353,-12.24 29.502,63.377 76.286,34.061 90.076,15.219"
         fill="none"
         stroke-linecap="round"
         stroke-linejoin="round"
         stroke-width="7.461"
         id="path65" />
    </g>
    <path
       d="m 167.19,270.93 c -4.7644,-0.13165 -8.6661,-3.8098 -13.132,-9.8574 -4.4665,-6.0476 -9.1897,-9.6907 -12.714,-20.944 -3.5237,-11.254 -5.6825,-30.917 1.8766,-40.954 7.5591,-10.037 38.314,-8.6357 49.194,-1.0272 10.881,7.6085 6.256,27.857 3.2036,39.688 -3.0524,11.831 -7.5111,17.079 -13.112,23.748 -5.6013,6.6693 -10.597,9.4769 -15.316,9.3465 z"
       fill="#6b350f"
       id="path69" />
  </g>
</svg>
